<mxfile host="app.diagrams.net" modified="2020-06-24T07:52:32.171Z" agent="5.0 (Windows NT 10.0; Win64; x64) AppleWebKit/537.36 (KHTML, like Gecko) Chrome/83.0.4103.116 Safari/537.36" etag="UmbyR0y2k-CY4XJNO_SP" version="13.3.1" type="github">
  <diagram id="U1f1iOyZuHphCbSQjjmQ" name="线路工程施工顺序">
    <mxGraphModel dx="1021" dy="541" grid="1" gridSize="10" guides="1" tooltips="1" connect="1" arrows="1" fold="1" page="1" pageScale="1" pageWidth="1169" pageHeight="827" math="0" shadow="0">
      <root>
        <mxCell id="0" />
        <mxCell id="1" parent="0" />
        <mxCell id="D-WusNqf6UCZfP93LmJz-3" value="" style="rounded=1;whiteSpace=wrap;html=1;fontSize=14;dashed=1;fillColor=none;strokeColor=#FF0000;" vertex="1" parent="1">
          <mxGeometry x="280" y="454" width="370" height="95" as="geometry" />
        </mxCell>
        <mxCell id="ytEXSWHGDXnanVehtBDF-74" value="" style="rounded=0;whiteSpace=wrap;html=1;dashed=1;fontSize=14;" parent="1" vertex="1">
          <mxGeometry x="456" y="79" width="470" height="90" as="geometry" />
        </mxCell>
        <mxCell id="ytEXSWHGDXnanVehtBDF-1" value="路由复测&lt;br style=&quot;font-size: 14px;&quot;&gt;" style="rounded=0;whiteSpace=wrap;html=1;direction=south;fillColor=#60a917;strokeColor=#2D7600;fontColor=#ffffff;fontSize=14;" parent="1" vertex="1">
          <mxGeometry x="210" y="225" width="18.49" height="91" as="geometry" />
        </mxCell>
        <mxCell id="ytEXSWHGDXnanVehtBDF-2" value="单盘检验" style="rounded=0;whiteSpace=wrap;html=1;direction=south;fillColor=#60a917;strokeColor=#2D7600;fontColor=#ffffff;fontSize=14;" parent="1" vertex="1">
          <mxGeometry x="210" y="340" width="20" height="90" as="geometry" />
        </mxCell>
        <mxCell id="ytEXSWHGDXnanVehtBDF-3" value="光缆配盘" style="rounded=0;whiteSpace=wrap;html=1;direction=south;fillColor=#60a917;strokeColor=#2D7600;fontColor=#ffffff;fontSize=14;" parent="1" vertex="1">
          <mxGeometry x="300" y="265" width="20" height="90" as="geometry" />
        </mxCell>
        <mxCell id="ytEXSWHGDXnanVehtBDF-7" value="敷设光缆" style="rounded=0;whiteSpace=wrap;html=1;direction=south;fillColor=#60a917;strokeColor=#2D7600;fontColor=#ffffff;fontSize=14;" parent="1" vertex="1">
          <mxGeometry x="490" y="225" width="20" height="95" as="geometry" />
        </mxCell>
        <mxCell id="ytEXSWHGDXnanVehtBDF-8" value="光缆接续" style="rounded=0;whiteSpace=wrap;html=1;direction=south;fillColor=#60a917;strokeColor=#2D7600;fontColor=#ffffff;fontSize=14;" parent="1" vertex="1">
          <mxGeometry x="613" y="225" width="20" height="95" as="geometry" />
        </mxCell>
        <mxCell id="ytEXSWHGDXnanVehtBDF-9" value="整理竣工资料" style="rounded=0;whiteSpace=wrap;html=1;direction=south;fillColor=#60a917;strokeColor=#2D7600;fontColor=#ffffff;fontSize=14;" parent="1" vertex="1">
          <mxGeometry x="848" y="225" width="20" height="95" as="geometry" />
        </mxCell>
        <mxCell id="ytEXSWHGDXnanVehtBDF-10" value="中继段测试" style="rounded=0;whiteSpace=wrap;html=1;direction=south;fillColor=#60a917;strokeColor=#2D7600;fontColor=#ffffff;fontSize=14;" parent="1" vertex="1">
          <mxGeometry x="793" y="225" width="20" height="95" as="geometry" />
        </mxCell>
        <mxCell id="ytEXSWHGDXnanVehtBDF-11" value="工程验收" style="rounded=0;whiteSpace=wrap;html=1;direction=south;fillColor=#60a917;strokeColor=#2D7600;fontColor=#ffffff;fontSize=14;" parent="1" vertex="1">
          <mxGeometry x="903" y="225" width="20" height="95" as="geometry" />
        </mxCell>
        <mxCell id="ytEXSWHGDXnanVehtBDF-14" value="" style="endArrow=classic;html=1;exitX=0.5;exitY=0;exitDx=0;exitDy=0;fillColor=#d80073;strokeColor=#A50040;fontSize=14;entryX=0.5;entryY=1;entryDx=0;entryDy=0;" parent="1" source="ytEXSWHGDXnanVehtBDF-69" target="D-WusNqf6UCZfP93LmJz-7" edge="1">
          <mxGeometry width="50" height="50" relative="1" as="geometry">
            <mxPoint x="320" y="217" as="sourcePoint" />
            <mxPoint x="334" y="217" as="targetPoint" />
          </mxGeometry>
        </mxCell>
        <mxCell id="ytEXSWHGDXnanVehtBDF-15" value="" style="endArrow=classic;html=1;exitX=0.5;exitY=0;exitDx=0;exitDy=0;fillColor=#d80073;strokeColor=#A50040;fontSize=14;" parent="1" source="D-WusNqf6UCZfP93LmJz-7" target="D-WusNqf6UCZfP93LmJz-6" edge="1">
          <mxGeometry width="50" height="50" relative="1" as="geometry">
            <mxPoint x="354" y="217" as="sourcePoint" />
            <mxPoint x="369" y="217" as="targetPoint" />
          </mxGeometry>
        </mxCell>
        <mxCell id="ytEXSWHGDXnanVehtBDF-16" value="清刷管孔" style="rounded=0;whiteSpace=wrap;html=1;direction=south;horizontal=1;verticalAlign=middle;fillColor=#a20025;strokeColor=#6F0000;fontColor=#ffffff;fontSize=14;" parent="1" vertex="1">
          <mxGeometry x="300" y="76" width="20" height="85" as="geometry" />
        </mxCell>
        <mxCell id="ytEXSWHGDXnanVehtBDF-20" value="" style="endArrow=classic;html=1;exitX=0.5;exitY=0;exitDx=0;exitDy=0;fillColor=#a20025;strokeColor=#6F0000;fontSize=14;entryX=0.5;entryY=1;entryDx=0;entryDy=0;" parent="1" source="ytEXSWHGDXnanVehtBDF-16" target="D-WusNqf6UCZfP93LmJz-5" edge="1">
          <mxGeometry width="50" height="50" relative="1" as="geometry">
            <mxPoint x="437" y="367" as="sourcePoint" />
            <mxPoint x="367.9999999999998" y="120.56896551724128" as="targetPoint" />
          </mxGeometry>
        </mxCell>
        <mxCell id="ytEXSWHGDXnanVehtBDF-23" value="缆沟开挖" style="rounded=0;whiteSpace=wrap;html=1;direction=south;horizontal=1;verticalAlign=middle;fillColor=#1ba1e2;strokeColor=#006EAF;fontColor=#ffffff;fontSize=14;" parent="1" vertex="1">
          <mxGeometry x="300" y="457" width="20" height="85" as="geometry" />
        </mxCell>
        <mxCell id="ytEXSWHGDXnanVehtBDF-25" value="特殊点处理" style="rounded=0;whiteSpace=wrap;html=1;direction=south;horizontal=1;verticalAlign=middle;fillColor=#1ba1e2;strokeColor=#006EAF;fontColor=#ffffff;fontSize=14;" parent="1" vertex="1">
          <mxGeometry x="300" y="361" width="20" height="90" as="geometry" />
        </mxCell>
        <mxCell id="ytEXSWHGDXnanVehtBDF-26" value="缆沟回填" style="rounded=0;whiteSpace=wrap;html=1;direction=south;fillColor=#1ba1e2;strokeColor=#006EAF;fontColor=#ffffff;fontSize=14;" parent="1" vertex="1">
          <mxGeometry x="551" y="457" width="20" height="85" as="geometry" />
        </mxCell>
        <mxCell id="ytEXSWHGDXnanVehtBDF-28" value="沟坎加固" style="rounded=0;whiteSpace=wrap;html=1;direction=south;fillColor=#1ba1e2;strokeColor=#006EAF;fontColor=#ffffff;fontSize=14;" parent="1" vertex="1">
          <mxGeometry x="613" y="457" width="20" height="85" as="geometry" />
        </mxCell>
        <mxCell id="ytEXSWHGDXnanVehtBDF-30" value="普通标识埋设" style="rounded=0;whiteSpace=wrap;html=1;direction=south;fillColor=#1ba1e2;strokeColor=#006EAF;fontColor=#ffffff;fontSize=14;" parent="1" vertex="1">
          <mxGeometry x="613" y="352" width="20" height="95" as="geometry" />
        </mxCell>
        <mxCell id="ytEXSWHGDXnanVehtBDF-31" value="接头标识埋设" style="rounded=0;whiteSpace=wrap;html=1;direction=south;fillColor=#1ba1e2;strokeColor=#006EAF;fontColor=#ffffff;fontSize=14;" parent="1" vertex="1">
          <mxGeometry x="650" y="275" width="20" height="95" as="geometry" />
        </mxCell>
        <mxCell id="ytEXSWHGDXnanVehtBDF-33" value="" style="endArrow=classic;html=1;exitX=0.5;exitY=0;exitDx=0;exitDy=0;entryX=0.5;entryY=1;entryDx=0;entryDy=0;fillColor=#60a917;strokeColor=#2D7600;fontSize=14;" parent="1" source="ytEXSWHGDXnanVehtBDF-2" target="ytEXSWHGDXnanVehtBDF-3" edge="1">
          <mxGeometry width="50" height="50" relative="1" as="geometry">
            <mxPoint x="497" y="317" as="sourcePoint" />
            <mxPoint x="547" y="267" as="targetPoint" />
          </mxGeometry>
        </mxCell>
        <mxCell id="ytEXSWHGDXnanVehtBDF-34" value="" style="endArrow=classic;html=1;exitX=0.5;exitY=0;exitDx=0;exitDy=0;entryX=0.5;entryY=1;entryDx=0;entryDy=0;fillColor=#60a917;strokeColor=#2D7600;fontSize=14;" parent="1" source="ytEXSWHGDXnanVehtBDF-1" target="ytEXSWHGDXnanVehtBDF-3" edge="1">
          <mxGeometry width="50" height="50" relative="1" as="geometry">
            <mxPoint x="247" y="322" as="sourcePoint" />
            <mxPoint x="307" y="322" as="targetPoint" />
          </mxGeometry>
        </mxCell>
        <mxCell id="ytEXSWHGDXnanVehtBDF-35" value="" style="endArrow=classic;html=1;exitX=0.5;exitY=0;exitDx=0;exitDy=0;entryX=0.5;entryY=1;entryDx=0;entryDy=0;fillColor=#60a917;strokeColor=#2D7600;fontSize=14;" parent="1" source="ytEXSWHGDXnanVehtBDF-3" target="ytEXSWHGDXnanVehtBDF-7" edge="1">
          <mxGeometry width="50" height="50" relative="1" as="geometry">
            <mxPoint x="470" y="317" as="sourcePoint" />
            <mxPoint x="520" y="267" as="targetPoint" />
          </mxGeometry>
        </mxCell>
        <mxCell id="ytEXSWHGDXnanVehtBDF-36" value="" style="endArrow=classic;html=1;exitX=0.5;exitY=0;exitDx=0;exitDy=0;entryX=0.5;entryY=1;entryDx=0;entryDy=0;fillColor=#1ba1e2;strokeColor=#006EAF;fontSize=14;" parent="1" source="ytEXSWHGDXnanVehtBDF-26" target="ytEXSWHGDXnanVehtBDF-28" edge="1">
          <mxGeometry width="50" height="50" relative="1" as="geometry">
            <mxPoint x="410" y="255" as="sourcePoint" />
            <mxPoint x="670" y="360" as="targetPoint" />
          </mxGeometry>
        </mxCell>
        <mxCell id="ytEXSWHGDXnanVehtBDF-39" value="" style="endArrow=classic;html=1;exitX=0.5;exitY=0;exitDx=0;exitDy=0;entryX=0.5;entryY=1;entryDx=0;entryDy=0;fillColor=#1ba1e2;strokeColor=#006EAF;fontSize=14;" parent="1" source="ytEXSWHGDXnanVehtBDF-26" target="ytEXSWHGDXnanVehtBDF-30" edge="1">
          <mxGeometry width="50" height="50" relative="1" as="geometry">
            <mxPoint x="530" y="370" as="sourcePoint" />
            <mxPoint x="725" y="370" as="targetPoint" />
          </mxGeometry>
        </mxCell>
        <mxCell id="ytEXSWHGDXnanVehtBDF-40" value="" style="endArrow=classic;html=1;exitX=0.5;exitY=0;exitDx=0;exitDy=0;entryX=0.5;entryY=1;entryDx=0;entryDy=0;fillColor=#1ba1e2;strokeColor=#006EAF;fontSize=14;" parent="1" source="ytEXSWHGDXnanVehtBDF-23" target="ytEXSWHGDXnanVehtBDF-7" edge="1">
          <mxGeometry width="50" height="50" relative="1" as="geometry">
            <mxPoint x="247" y="222" as="sourcePoint" />
            <mxPoint x="307" y="322" as="targetPoint" />
            <Array as="points" />
          </mxGeometry>
        </mxCell>
        <mxCell id="ytEXSWHGDXnanVehtBDF-41" value="" style="endArrow=classic;html=1;exitX=0.5;exitY=0;exitDx=0;exitDy=0;entryX=0.5;entryY=1;entryDx=0;entryDy=0;fillColor=#d80073;strokeColor=#A50040;fontSize=14;" parent="1" source="D-WusNqf6UCZfP93LmJz-6" target="ytEXSWHGDXnanVehtBDF-7" edge="1">
          <mxGeometry width="50" height="50" relative="1" as="geometry">
            <mxPoint x="389" y="210" as="sourcePoint" />
            <mxPoint x="317" y="332" as="targetPoint" />
          </mxGeometry>
        </mxCell>
        <mxCell id="ytEXSWHGDXnanVehtBDF-42" value="" style="endArrow=classic;html=1;entryX=0.5;entryY=1;entryDx=0;entryDy=0;fillColor=#a20025;strokeColor=#6F0000;fontSize=14;exitX=0.5;exitY=0;exitDx=0;exitDy=0;" parent="1" source="D-WusNqf6UCZfP93LmJz-5" target="ytEXSWHGDXnanVehtBDF-7" edge="1">
          <mxGeometry width="50" height="50" relative="1" as="geometry">
            <mxPoint x="410" y="90" as="sourcePoint" />
            <mxPoint x="495" y="266" as="targetPoint" />
          </mxGeometry>
        </mxCell>
        <mxCell id="ytEXSWHGDXnanVehtBDF-43" value="" style="endArrow=classic;html=1;exitX=0.5;exitY=0;exitDx=0;exitDy=0;entryX=0.5;entryY=1;entryDx=0;entryDy=0;fillColor=#1ba1e2;strokeColor=#006EAF;fontSize=14;" parent="1" source="ytEXSWHGDXnanVehtBDF-25" target="ytEXSWHGDXnanVehtBDF-7" edge="1">
          <mxGeometry width="50" height="50" relative="1" as="geometry">
            <mxPoint x="326" y="-77.02999999999997" as="sourcePoint" />
            <mxPoint x="510" y="272" as="targetPoint" />
            <Array as="points" />
          </mxGeometry>
        </mxCell>
        <mxCell id="ytEXSWHGDXnanVehtBDF-44" value="" style="endArrow=classic;html=1;entryX=0.5;entryY=1;entryDx=0;entryDy=0;fillColor=#d80073;strokeColor=#A50040;fontSize=14;exitX=0.5;exitY=0;exitDx=0;exitDy=0;" parent="1" source="D-WusNqf6UCZfP93LmJz-1" target="ytEXSWHGDXnanVehtBDF-69" edge="1">
          <mxGeometry width="50" height="50" relative="1" as="geometry">
            <mxPoint x="228.49" y="277.5" as="sourcePoint" />
            <mxPoint x="300" y="217" as="targetPoint" />
          </mxGeometry>
        </mxCell>
        <mxCell id="ytEXSWHGDXnanVehtBDF-45" value="" style="endArrow=classic;html=1;exitX=0.5;exitY=0;exitDx=0;exitDy=0;entryX=0.5;entryY=1;entryDx=0;entryDy=0;fillColor=#a20025;strokeColor=#6F0000;fontSize=14;" parent="1" source="ytEXSWHGDXnanVehtBDF-1" target="ytEXSWHGDXnanVehtBDF-16" edge="1">
          <mxGeometry width="50" height="50" relative="1" as="geometry">
            <mxPoint x="247" y="222" as="sourcePoint" />
            <mxPoint x="309" y="220" as="targetPoint" />
          </mxGeometry>
        </mxCell>
        <mxCell id="ytEXSWHGDXnanVehtBDF-46" value="" style="endArrow=classic;html=1;exitX=0.5;exitY=0;exitDx=0;exitDy=0;entryX=0.5;entryY=1;entryDx=0;entryDy=0;fillColor=#1ba1e2;strokeColor=#006EAF;fontSize=14;" parent="1" source="ytEXSWHGDXnanVehtBDF-1" target="ytEXSWHGDXnanVehtBDF-25" edge="1">
          <mxGeometry width="50" height="50" relative="1" as="geometry">
            <mxPoint x="247" y="222" as="sourcePoint" />
            <mxPoint x="295" y="-4" as="targetPoint" />
          </mxGeometry>
        </mxCell>
        <mxCell id="ytEXSWHGDXnanVehtBDF-50" value="" style="endArrow=classic;html=1;entryX=0.5;entryY=1;entryDx=0;entryDy=0;exitX=0.5;exitY=0;exitDx=0;exitDy=0;fillColor=#1ba1e2;strokeColor=#006EAF;fontSize=14;" parent="1" source="ytEXSWHGDXnanVehtBDF-1" target="ytEXSWHGDXnanVehtBDF-23" edge="1">
          <mxGeometry width="50" height="50" relative="1" as="geometry">
            <mxPoint x="235" y="216" as="sourcePoint" />
            <mxPoint x="305" y="6" as="targetPoint" />
          </mxGeometry>
        </mxCell>
        <mxCell id="ytEXSWHGDXnanVehtBDF-51" value="" style="endArrow=classic;html=1;exitX=0.5;exitY=0;exitDx=0;exitDy=0;entryX=0.5;entryY=1;entryDx=0;entryDy=0;fillColor=#60a917;strokeColor=#2D7600;fontSize=14;" parent="1" source="ytEXSWHGDXnanVehtBDF-7" target="ytEXSWHGDXnanVehtBDF-8" edge="1">
          <mxGeometry width="50" height="50" relative="1" as="geometry">
            <mxPoint x="140" y="220" as="sourcePoint" />
            <mxPoint x="274" y="220" as="targetPoint" />
          </mxGeometry>
        </mxCell>
        <mxCell id="ytEXSWHGDXnanVehtBDF-52" value="" style="endArrow=classic;html=1;entryX=0.5;entryY=1;entryDx=0;entryDy=0;exitX=0.5;exitY=0;exitDx=0;exitDy=0;fillColor=#60a917;strokeColor=#2D7600;fontSize=14;" parent="1" source="ytEXSWHGDXnanVehtBDF-8" target="ytEXSWHGDXnanVehtBDF-10" edge="1">
          <mxGeometry width="50" height="50" relative="1" as="geometry">
            <mxPoint x="598" y="143" as="sourcePoint" />
            <mxPoint x="663" y="142.5" as="targetPoint" />
          </mxGeometry>
        </mxCell>
        <mxCell id="ytEXSWHGDXnanVehtBDF-53" value="" style="endArrow=classic;html=1;entryX=0.5;entryY=1;entryDx=0;entryDy=0;exitX=0.5;exitY=0;exitDx=0;exitDy=0;fillColor=#60a917;strokeColor=#2D7600;fontSize=14;" parent="1" source="ytEXSWHGDXnanVehtBDF-10" target="ytEXSWHGDXnanVehtBDF-9" edge="1">
          <mxGeometry width="50" height="50" relative="1" as="geometry">
            <mxPoint x="553" y="215" as="sourcePoint" />
            <mxPoint x="703" y="215" as="targetPoint" />
          </mxGeometry>
        </mxCell>
        <mxCell id="ytEXSWHGDXnanVehtBDF-54" value="" style="endArrow=classic;html=1;entryX=0.5;entryY=1;entryDx=0;entryDy=0;exitX=0.5;exitY=0;exitDx=0;exitDy=0;fillColor=#60a917;strokeColor=#2D7600;fontSize=14;" parent="1" source="ytEXSWHGDXnanVehtBDF-9" target="ytEXSWHGDXnanVehtBDF-11" edge="1">
          <mxGeometry width="50" height="50" relative="1" as="geometry">
            <mxPoint x="823" y="205" as="sourcePoint" />
            <mxPoint x="808" y="215" as="targetPoint" />
          </mxGeometry>
        </mxCell>
        <mxCell id="ytEXSWHGDXnanVehtBDF-57" value="" style="endArrow=classic;html=1;exitX=0.5;exitY=0;exitDx=0;exitDy=0;entryX=0.5;entryY=1;entryDx=0;entryDy=0;fillColor=#1ba1e2;strokeColor=#006EAF;fontSize=14;" parent="1" source="ytEXSWHGDXnanVehtBDF-7" target="ytEXSWHGDXnanVehtBDF-26" edge="1">
          <mxGeometry width="50" height="50" relative="1" as="geometry">
            <mxPoint x="495" y="272" as="sourcePoint" />
            <mxPoint x="710" y="272" as="targetPoint" />
          </mxGeometry>
        </mxCell>
        <mxCell id="ytEXSWHGDXnanVehtBDF-62" value="" style="endArrow=classic;html=1;exitX=0.5;exitY=0;exitDx=0;exitDy=0;entryX=0.5;entryY=1;entryDx=0;entryDy=0;fillColor=#1ba1e2;strokeColor=#006EAF;fontSize=14;" parent="1" source="ytEXSWHGDXnanVehtBDF-26" target="ytEXSWHGDXnanVehtBDF-8" edge="1">
          <mxGeometry width="50" height="50" relative="1" as="geometry">
            <mxPoint x="530" y="378" as="sourcePoint" />
            <mxPoint x="641" y="378" as="targetPoint" />
          </mxGeometry>
        </mxCell>
        <mxCell id="ytEXSWHGDXnanVehtBDF-64" value="" style="endArrow=classic;html=1;entryX=0.5;entryY=1;entryDx=0;entryDy=0;exitX=0.5;exitY=0;exitDx=0;exitDy=0;fillColor=#1ba1e2;strokeColor=#006EAF;fontSize=14;" parent="1" source="ytEXSWHGDXnanVehtBDF-8" target="ytEXSWHGDXnanVehtBDF-31" edge="1">
          <mxGeometry width="50" height="50" relative="1" as="geometry">
            <mxPoint x="568" y="153" as="sourcePoint" />
            <mxPoint x="818" y="153" as="targetPoint" />
          </mxGeometry>
        </mxCell>
        <mxCell id="ytEXSWHGDXnanVehtBDF-65" value="" style="endArrow=classic;html=1;entryX=0.5;entryY=1;entryDx=0;entryDy=0;exitX=0.5;exitY=0;exitDx=0;exitDy=0;fillColor=#1ba1e2;strokeColor=#006EAF;fontSize=14;" parent="1" source="ytEXSWHGDXnanVehtBDF-31" target="ytEXSWHGDXnanVehtBDF-10" edge="1">
          <mxGeometry width="50" height="50" relative="1" as="geometry">
            <mxPoint x="568" y="153" as="sourcePoint" />
            <mxPoint x="683" y="215" as="targetPoint" />
          </mxGeometry>
        </mxCell>
        <mxCell id="ytEXSWHGDXnanVehtBDF-66" value="" style="endArrow=classic;html=1;exitX=0.5;exitY=0;exitDx=0;exitDy=0;entryX=0.5;entryY=1;entryDx=0;entryDy=0;fillColor=#1ba1e2;strokeColor=#006EAF;fontSize=14;" parent="1" source="ytEXSWHGDXnanVehtBDF-28" target="ytEXSWHGDXnanVehtBDF-10" edge="1">
          <mxGeometry width="50" height="50" relative="1" as="geometry">
            <mxPoint x="517" y="378" as="sourcePoint" />
            <mxPoint x="628" y="378" as="targetPoint" />
          </mxGeometry>
        </mxCell>
        <mxCell id="ytEXSWHGDXnanVehtBDF-67" value="" style="endArrow=classic;html=1;exitX=0.5;exitY=0;exitDx=0;exitDy=0;entryX=0.5;entryY=1;entryDx=0;entryDy=0;fillColor=#1ba1e2;strokeColor=#006EAF;fontSize=14;" parent="1" source="ytEXSWHGDXnanVehtBDF-30" target="ytEXSWHGDXnanVehtBDF-10" edge="1">
          <mxGeometry width="50" height="50" relative="1" as="geometry">
            <mxPoint x="517" y="378" as="sourcePoint" />
            <mxPoint x="628" y="478" as="targetPoint" />
          </mxGeometry>
        </mxCell>
        <mxCell id="ytEXSWHGDXnanVehtBDF-69" value="立电杆" style="rounded=0;whiteSpace=wrap;html=1;direction=south;horizontal=1;verticalAlign=middle;fillColor=#d80073;strokeColor=#A50040;fontColor=#ffffff;fontSize=14;" parent="1" vertex="1">
          <mxGeometry x="300" y="173" width="20" height="85" as="geometry" />
        </mxCell>
        <mxCell id="ytEXSWHGDXnanVehtBDF-71" value="管道线路工程" style="rounded=0;whiteSpace=wrap;html=1;direction=west;horizontal=1;verticalAlign=middle;fillColor=#a20025;strokeColor=#6F0000;fontColor=#ffffff;fontSize=14;" parent="1" vertex="1">
          <mxGeometry x="814" y="93" width="100" height="20" as="geometry" />
        </mxCell>
        <mxCell id="ytEXSWHGDXnanVehtBDF-72" value="架空线路工程" style="rounded=0;whiteSpace=wrap;html=1;direction=west;horizontal=1;verticalAlign=middle;fillColor=#d80073;strokeColor=#A50040;fontColor=#ffffff;fontSize=14;" parent="1" vertex="1">
          <mxGeometry x="584" y="93" width="100" height="20" as="geometry" />
        </mxCell>
        <mxCell id="ytEXSWHGDXnanVehtBDF-73" value="直埋线路工程" style="rounded=0;whiteSpace=wrap;html=1;direction=west;horizontal=1;verticalAlign=middle;fillColor=#1ba1e2;strokeColor=#006EAF;fontColor=#ffffff;fontSize=14;" parent="1" vertex="1">
          <mxGeometry x="699" y="93" width="100" height="20" as="geometry" />
        </mxCell>
        <mxCell id="ubCEMEmYxDRO1DP1UkU_-1" value="线路工程通用" style="rounded=0;whiteSpace=wrap;html=1;direction=west;fillColor=#60a917;strokeColor=#2D7600;fontColor=#ffffff;fontSize=14;" parent="1" vertex="1">
          <mxGeometry x="471" y="93" width="100" height="20" as="geometry" />
        </mxCell>
        <mxCell id="ubCEMEmYxDRO1DP1UkU_-2" value="说明：&lt;span style=&quot;font-weight: normal ; font-size: 14px&quot;&gt;【光缆接续】前后的通用连线不适用于直埋光缆线路工程。&lt;/span&gt;" style="text;html=1;strokeColor=none;fillColor=none;align=left;verticalAlign=middle;whiteSpace=wrap;rounded=0;fontStyle=1;fontSize=14;" parent="1" vertex="1">
          <mxGeometry x="471" y="119" width="445" height="40" as="geometry" />
        </mxCell>
        <mxCell id="D-WusNqf6UCZfP93LmJz-1" value="路由复测&lt;br style=&quot;font-size: 14px;&quot;&gt;" style="rounded=0;whiteSpace=wrap;html=1;direction=south;fillColor=#60a917;strokeColor=#2D7600;fontColor=#ffffff;fontSize=14;" vertex="1" parent="1">
          <mxGeometry x="210" y="225" width="20" height="90" as="geometry" />
        </mxCell>
        <mxCell id="D-WusNqf6UCZfP93LmJz-6" value="架设吊线" style="rounded=0;whiteSpace=wrap;html=1;direction=south;fillColor=#d80073;strokeColor=#A50040;fontColor=#ffffff;fontSize=14;" vertex="1" parent="1">
          <mxGeometry x="380" y="173" width="20" height="85" as="geometry" />
        </mxCell>
        <mxCell id="D-WusNqf6UCZfP93LmJz-7" value="制装拉线" style="rounded=0;whiteSpace=wrap;html=1;direction=south;fillColor=#d80073;strokeColor=#A50040;fontColor=#ffffff;fontSize=14;" vertex="1" parent="1">
          <mxGeometry x="340" y="173" width="20" height="85" as="geometry" />
        </mxCell>
        <mxCell id="D-WusNqf6UCZfP93LmJz-5" value="敷设子管" style="rounded=0;whiteSpace=wrap;html=1;direction=south;fillColor=#a20025;strokeColor=#6F0000;fontColor=#ffffff;fontSize=14;" vertex="1" parent="1">
          <mxGeometry x="380" y="76" width="20" height="85" as="geometry" />
        </mxCell>
      </root>
    </mxGraphModel>
  </diagram>
</mxfile>
